<svg id="Layer_1" data-name="Layer 1" xmlns="http://www.w3.org/2000/svg" xmlns:xlink="http://www.w3.org/1999/xlink" viewBox="0 0 215.7 115.86"><defs><style>.cls-1{fill:url(#linear-gradient);}.cls-2{fill:#231f20;}</style><linearGradient id="linear-gradient" x1="359.81" y1="292.46" x2="432.32" y2="292.46" gradientUnits="userSpaceOnUse"><stop offset="0" stop-color="#dedfe3"/><stop offset="0" stop-color="#dfdddf"/><stop offset="0" stop-color="#e0d9d3"/><stop offset="0" stop-color="#e3d1be"/><stop offset="0" stop-color="#e6c6a1"/><stop offset="0" stop-color="#ebb87c"/><stop offset="0" stop-color="#f1a74f"/><stop offset="0" stop-color="#f7941d"/><stop offset="0.18" stop-color="#f79a1e"/><stop offset="0.43" stop-color="#f8ab22"/><stop offset="0.71" stop-color="#f8c829"/><stop offset="1" stop-color="#f9ed32"/></linearGradient></defs><path class="cls-1" d="M417.22,260.53a59.4,59.4,0,0,0,1.09,8.8,46.09,46.09,0,0,1,1.25,9.43c0,7.94-4.36,11.91-11.21,13.4v.25c6.85,1.36,11.21,5.58,11.21,13.51a44.82,44.82,0,0,1-1.25,9.43,61.1,61.1,0,0,0-1.09,8.93c0,6.94,3.74,10.67,12.46,10.79h2.64v6.82h-3.26c-12.77,0-22.58-4.46-22.58-17a57,57,0,0,1,1.25-10.17A55.66,55.66,0,0,0,409,304.68c0-3.82-1.53-9.12-12.44-9.17h-.17c-11,.11-12.6,5.37-12.6,9.17A54,54,0,0,0,385,314.73a55.27,55.27,0,0,1,1.28,10.17c0,12.53-10.06,17-23.15,17h-3.36v-6.82h2.72c8.94-.12,12.77-3.85,12.77-10.79a58.6,58.6,0,0,0-1.12-8.93,44.16,44.16,0,0,1-1.27-9.43c0-7.93,4.47-12.15,11.49-13.51v-.25c-7-1.49-11.49-5.46-11.49-13.4a45.41,45.41,0,0,1,1.27-9.43,57,57,0,0,0,1.12-8.8c0-6.7-3.35-10.54-12.61-10.67h-2.88V243H363c13.57,0,23.31,4.84,23.31,16.25A56.55,56.55,0,0,1,385,269.58,58.06,58.06,0,0,0,383.76,280c0,4.29,1.56,9.07,12.6,9.17h.34c10.76-.1,12.27-4.88,12.27-9.17a59.84,59.84,0,0,0-1.24-10.43,58.31,58.31,0,0,1-1.25-10.29c0-11.41,9.5-16.25,22.73-16.25h3.11v6.82h-2.8C420.49,250,417.22,253.83,417.22,260.53Z" transform="translate(-288.24 -234.57)"/><path class="cls-2" d="M432.32,241.68a5.66,5.66,0,0,1,4.9-5.62,182.92,182.92,0,0,1,23.92-1.49c14.84,0,25.72,3.41,32.62,9.56,6.38,5.46,10.18,13.82,10.18,24.06,0,10.41-3.11,18.6-9,24.57-7.94,8.36-20.89,12.63-35.55,12.63-2.5,0-4.88-.06-7.1-.25a4.63,4.63,0,0,0-5,4.63v36.05a4.6,4.6,0,0,1-4.61,4.61h-5.78a4.61,4.61,0,0,1-4.62-4.61Zm15,46.73a4.62,4.62,0,0,0,4.06,4.59,67.65,67.65,0,0,0,8.37.44c18.12,0,29.17-8.7,29.17-24.57,0-15.19-10.88-22.52-27.44-22.52a91.92,91.92,0,0,0-10.07.49,4.62,4.62,0,0,0-4.09,4.59Z" transform="translate(-288.24 -234.57)"/><path class="cls-2" d="M353.54,234.57h-4.06a6.28,6.28,0,0,0-6.27,6.28v91.37a5.66,5.66,0,0,1-5.67,5.66h-43a6.28,6.28,0,0,0-6.27,6.28h0a6.27,6.27,0,0,0,6.27,6.27h59a6.27,6.27,0,0,0,6.27-6.27V240.85A6.28,6.28,0,0,0,353.54,234.57Z" transform="translate(-288.24 -234.57)"/></svg>